<svg width="18" height="18" viewBox="0 0 18 18" fill="none" xmlns="http://www.w3.org/2000/svg">
<path d="M8.1 6.3H11.7C11.9387 6.3 12.1676 6.20518 12.3364 6.0364C12.5052 5.86761 12.6 5.63869 12.6 5.4C12.6 5.1613 12.5052 4.93239 12.3364 4.7636C12.1676 4.59482 11.9387 4.5 11.7 4.5H9.9V3.6C9.9 3.3613 9.80518 3.13239 9.6364 2.9636C9.46761 2.79482 9.23869 2.7 9 2.7C8.7613 2.7 8.53239 2.79482 8.3636 2.9636C8.19482 3.13239 8.1 3.3613 8.1 3.6V4.5C7.38392 4.5 6.69716 4.78446 6.19081 5.29081C5.68446 5.79716 5.4 6.48392 5.4 7.2C5.4 7.91608 5.68446 8.60284 6.19081 9.10919C6.69716 9.61554 7.38392 9.9 8.1 9.9H9.9C10.1387 9.9 10.3676 9.99482 10.5364 10.1636C10.7052 10.3324 10.8 10.5613 10.8 10.8C10.8 11.0387 10.7052 11.2676 10.5364 11.4364C10.3676 11.6052 10.1387 11.7 9.9 11.7H6.3C6.06131 11.7 5.83239 11.7948 5.6636 11.9636C5.49482 12.1324 5.4 12.3613 5.4 12.6C5.4 12.8387 5.49482 13.0676 5.6636 13.2364C5.83239 13.4052 6.06131 13.5 6.3 13.5H8.1V14.4C8.1 14.6387 8.19482 14.8676 8.3636 15.0364C8.53239 15.2052 8.7613 15.3 9 15.3C9.23869 15.3 9.46761 15.2052 9.6364 15.0364C9.80518 14.8676 9.9 14.6387 9.9 14.4V13.5C10.6161 13.5 11.3028 13.2155 11.8092 12.7092C12.3155 12.2028 12.6 11.5161 12.6 10.8C12.6 10.0839 12.3155 9.39716 11.8092 8.89081C11.3028 8.38446 10.6161 8.1 9.9 8.1H8.1C7.8613 8.1 7.63239 8.00518 7.4636 7.8364C7.29482 7.66761 7.2 7.43869 7.2 7.2C7.2 6.96131 7.29482 6.73239 7.4636 6.5636C7.63239 6.39482 7.8613 6.3 8.1 6.3ZM15.3 0H2.7C1.98392 0 1.29716 0.284464 0.790812 0.790812C0.284464 1.29716 0 1.98392 0 2.7V15.3C0 16.0161 0.284464 16.7028 0.790812 17.2092C1.29716 17.7155 1.98392 18 2.7 18H15.3C16.0161 18 16.7028 17.7155 17.2092 17.2092C17.7155 16.7028 18 16.0161 18 15.3V2.7C18 1.98392 17.7155 1.29716 17.2092 0.790812C16.7028 0.284464 16.0161 0 15.3 0ZM16.2 15.3C16.2 15.5387 16.1052 15.7676 15.9364 15.9364C15.7676 16.1052 15.5387 16.2 15.3 16.2H2.7C2.46131 16.2 2.23239 16.1052 2.0636 15.9364C1.89482 15.7676 1.8 15.5387 1.8 15.3V2.7C1.8 2.46131 1.89482 2.23239 2.0636 2.0636C2.23239 1.89482 2.46131 1.8 2.7 1.8H15.3C15.5387 1.8 15.7676 1.89482 15.9364 2.0636C16.1052 2.23239 16.2 2.46131 16.2 2.7V15.3Z" fill="black" fill-opacity="0.8"/>
</svg>
