<svg width="34" height="34" viewBox="0 0 34 34" fill="none" xmlns="http://www.w3.org/2000/svg">
<rect width="34" height="34" rx="4" fill="#0080FF"/>
<path d="M27 12.24C27.0008 12.1084 26.9756 11.9779 26.9258 11.8561C26.876 11.7343 26.8027 11.6235 26.71 11.53L22.47 7.29002C22.3766 7.19734 22.2658 7.12401 22.1439 7.07425C22.0221 7.02448 21.8916 6.99926 21.76 7.00002C21.6284 6.99926 21.4979 7.02448 21.3761 7.07425C21.2543 7.12401 21.1435 7.19734 21.05 7.29002L18.22 10.12L7.29002 21.05C7.19734 21.1435 7.12401 21.2543 7.07425 21.3761C7.02448 21.4979 6.99926 21.6284 7.00002 21.76V26C7.00002 26.2652 7.10537 26.5196 7.29291 26.7071C7.48045 26.8947 7.7348 27 8.00002 27H12.24C12.3799 27.0076 12.5199 26.9857 12.6508 26.9358C12.7818 26.8858 12.9007 26.8089 13 26.71L23.87 15.78L26.71 13C26.8013 12.9031 26.8757 12.7915 26.93 12.67C26.9397 12.5903 26.9397 12.5097 26.93 12.43C26.9347 12.3835 26.9347 12.3366 26.93 12.29L27 12.24ZM11.83 25H9.00002V22.17L18.93 12.24L21.76 15.07L11.83 25ZM23.17 13.66L20.34 10.83L21.76 9.42002L24.58 12.24L23.17 13.66Z" fill="white" fill-opacity="0.9"/>
</svg>
