<svg width="24" height="24" viewBox="0 0 24 24" fill="none" xmlns="http://www.w3.org/2000/svg">
<path d="M21.9998 5.07983C22.0007 4.47005 21.8205 3.87375 21.4821 3.36647C21.1437 2.85918 20.6624 2.46376 20.0991 2.23029C19.5357 1.99683 18.9158 1.93583 18.3178 2.05502C17.7198 2.17421 17.1706 2.46824 16.7398 2.89983L13.9298 5.70983L7.43982 3.54983C7.26702 3.49552 7.08273 3.48917 6.9066 3.53144C6.73048 3.57371 6.56914 3.66302 6.43982 3.78983L4.05982 6.14983C3.94705 6.26391 3.86337 6.40344 3.81586 6.55665C3.76835 6.70986 3.75839 6.87226 3.78683 7.03012C3.81526 7.18799 3.88126 7.3367 3.97924 7.46371C4.07723 7.59071 4.20433 7.69228 4.34982 7.75983L9.52982 10.1098L6.92982 12.7098L5.21982 11.8498C5.03519 11.7499 4.8238 11.7106 4.6156 11.7375C4.4074 11.7645 4.21295 11.8562 4.05982 11.9998L2.28982 13.8098C2.10357 13.9972 1.99902 14.2506 1.99902 14.5148C1.99902 14.779 2.10357 15.0325 2.28982 15.2198L8.77982 21.7098C8.96718 21.8961 9.22063 22.0006 9.48482 22.0006C9.749 22.0006 10.0025 21.8961 10.1898 21.7098L11.9998 19.9398C12.1499 19.7913 12.2491 19.5991 12.2832 19.3907C12.3174 19.1823 12.2847 18.9685 12.1898 18.7798L11.3298 17.0698L13.9298 14.4698L16.2798 19.6498C16.3474 19.7953 16.4489 19.9224 16.5759 20.0204C16.7029 20.1184 16.8517 20.1844 17.0095 20.2128C17.1674 20.2413 17.3298 20.2313 17.483 20.1838C17.6362 20.1363 17.7757 20.0526 17.8898 19.9398L20.2498 17.5798C20.3766 17.4505 20.4659 17.2892 20.5082 17.1131C20.5505 16.9369 20.5441 16.7526 20.4898 16.5798L18.3298 10.0898L21.0998 7.25983C21.387 6.9744 21.6145 6.63463 21.7691 6.26035C21.9236 5.88606 22.002 5.48475 21.9998 5.07983ZM19.6798 5.84983L16.4398 9.08983C16.313 9.21916 16.2237 9.38049 16.1814 9.55662C16.1391 9.73274 16.1455 9.91704 16.1998 10.0898L18.3598 16.5698L17.4598 17.4698L15.1098 12.2998C15.0431 12.153 14.9419 12.0245 14.8148 11.9252C14.6877 11.826 14.5384 11.7589 14.3798 11.7298C14.2199 11.7006 14.0552 11.7109 13.9002 11.7597C13.7451 11.8085 13.6042 11.8943 13.4898 12.0098L9.36982 16.1698C9.2219 16.3176 9.12402 16.508 9.08994 16.7143C9.05586 16.9206 9.08729 17.1323 9.17982 17.3198L9.99982 18.9998L9.43982 19.5598L4.40982 14.5198L4.99982 13.9998L6.70982 14.8598C6.89731 14.9524 7.10908 14.9838 7.31536 14.9497C7.52164 14.9156 7.71205 14.8177 7.85982 14.6698L11.9998 10.5098C12.1147 10.3958 12.2002 10.2556 12.249 10.1013C12.2978 9.94695 12.3084 9.78308 12.2798 9.62375C12.2513 9.46442 12.1845 9.31439 12.0853 9.18656C11.986 9.05872 11.8571 8.9569 11.7098 8.88983L6.49982 6.53983L7.39982 5.63983L13.8798 7.79983C14.0526 7.85414 14.2369 7.8605 14.413 7.81823C14.5892 7.77596 14.7505 7.68665 14.8798 7.55983L18.1198 4.31983C18.2195 4.21794 18.3385 4.13697 18.4698 4.0817C18.6012 4.02642 18.7423 3.99795 18.8848 3.99795C19.0273 3.99795 19.1684 4.02642 19.2998 4.0817C19.4312 4.13697 19.5502 4.21794 19.6498 4.31983C19.7541 4.41648 19.8366 4.53426 19.8918 4.66531C19.947 4.79637 19.9736 4.93769 19.9698 5.07983C19.9752 5.22103 19.9524 5.36189 19.9026 5.49412C19.8528 5.62635 19.777 5.7473 19.6798 5.84983Z" fill="black" fill-opacity="0.8"/>
</svg>
