<svg width="21" height="19" viewBox="0 0 21 19" fill="none" xmlns="http://www.w3.org/2000/svg">
<path d="M20.97 16.0884L19.97 12.2533L16.82 0.737928C16.7519 0.483914 16.5853 0.267054 16.3567 0.134836C16.128 0.00261889 15.8559 -0.0341793 15.6 0.0325002L11.73 1.02606C11.6376 0.924364 11.5251 0.842741 11.3995 0.786318C11.2739 0.729894 11.1379 0.699888 11 0.698185H1C0.734784 0.698185 0.48043 0.802864 0.292893 0.989193C0.105357 1.17552 0 1.42824 0 1.69175V17.5887C0 17.8522 0.105357 18.1049 0.292893 18.2913C0.48043 18.4776 0.734784 18.5823 1 18.5823H11C11.2652 18.5823 11.5196 18.4776 11.7071 18.2913C11.8946 18.1049 12 17.8522 12 17.5887V9.64023L14.2 17.8073C14.2586 18.024 14.3893 18.2147 14.5709 18.3482C14.7525 18.4817 14.9742 18.5502 15.2 18.5425C15.2864 18.5523 15.3736 18.5523 15.46 18.5425L20.29 17.2608C20.4177 17.2269 20.5374 17.1682 20.6421 17.088C20.7468 17.0079 20.8344 16.9079 20.9 16.7939C21.0055 16.574 21.0302 16.3245 20.97 16.0884ZM4.97 16.6349H1.97V14.6478H4.97V16.6349ZM4.97 12.6607H1.97V6.69929H4.97V12.6607ZM4.97 4.71217H1.97V2.72505H4.97V4.71217ZM9.97 16.6349H6.97V14.6478H9.97V16.6349ZM9.97 12.6607H6.97V6.69929H9.97V12.6607ZM9.97 4.71217H6.97V2.72505H9.97V4.71217ZM12.22 2.98337L15.12 2.2084L15.64 4.12597L12.74 4.90095L12.22 2.98337ZM14.81 12.5812L13.26 6.81852L16.16 6.04354L17.71 11.8062L14.81 12.5812ZM15.81 16.4163L15.29 14.4987L18.19 13.7238L18.71 15.6413L15.81 16.4163Z" fill="black" fill-opacity="0.8"/>
</svg>
