<svg width="18" height="18" viewBox="0 0 18 18" fill="none" xmlns="http://www.w3.org/2000/svg">
<path d="M15.3 9H9V2.7C9 2.16 8.64 1.8 8.1 1.8C3.6 1.8 0 5.4 0 9.9C0 14.4 3.6 18 8.1 18C12.6 18 16.2 14.4 16.2 9.9C16.2 9.36 15.84 9 15.3 9ZM9 16.11C5.58 16.65 2.34 14.22 1.89 10.8C1.35 7.38 3.78 4.14 7.2 3.69V9.9C7.2 10.44 7.56 10.8 8.1 10.8H14.31C13.95 13.59 11.79 15.75 9 16.11ZM11.7 0C11.16 0 10.8 0.36 10.8 0.9V6.3C10.8 6.84 11.16 7.2 11.7 7.2H17.1C17.64 7.2 18 6.84 18 6.3C18 2.79 15.21 0 11.7 0ZM12.6 5.4V1.89C14.4 2.25 15.75 3.6 16.11 5.4H12.6Z" fill="black" fill-opacity="0.8"/>
</svg>
